<?xml version="1.0" standalone="no"?>
<!DOCTYPE svg PUBLIC "-//W3C//DTD SVG 20010904//EN"
 "http://www.w3.org/TR/2001/REC-SVG-20010904/DTD/svg10.dtd">
<svg version="1.0" xmlns="http://www.w3.org/2000/svg"
 width="225.000000pt" height="225.000000pt" viewBox="0 0 225.000000 225.000000"
 preserveAspectRatio="xMidYMid meet">

<g transform="translate(0.000000,225.000000) scale(0.100000,-0.100000)"
fill="#000000" stroke="none">
<path d="M744 2070 c-26 -10 -84 -76 -84 -95 0 -12 -23 -15 -136 -15 -74 0
-144 -5 -155 -10 -50 -27 -49 -17 -49 -786 l0 -716 34 -34 34 -34 406 0 407 0
-12 -21 c-10 -19 -5 -27 39 -72 50 -50 51 -50 76 -33 25 16 28 15 66 -4 21
-11 46 -20 54 -20 9 0 16 -11 18 -27 3 -27 5 -28 76 -31 72 -3 72 -3 78 25 5
23 16 32 62 50 50 19 58 20 72 8 24 -22 32 -19 78 28 44 45 51 67 28 86 -12
10 -10 21 12 71 21 47 31 60 52 62 24 3 25 7 28 71 l3 68 -36 14 c-19 9 -35
21 -35 28 0 7 -8 29 -19 50 -16 31 -16 38 -5 48 24 20 16 43 -31 89 -45 44
-46 45 -73 29 -23 -13 -31 -13 -52 -2 -14 7 -37 18 -52 23 -18 6 -28 17 -28
29 0 11 -4 23 -10 26 -6 4 -10 161 -10 439 0 239 -3 447 -6 465 -4 17 -18 42
-32 56 -24 24 -29 25 -161 25 l-136 0 -20 37 c-11 21 -35 48 -54 60 -32 22
-42 23 -220 22 -102 0 -195 -4 -207 -9z m381 -54 c44 -19 55 -42 55 -115 l0
-61 -236 0 -236 0 4 64 c4 67 22 100 63 117 36 14 312 11 350 -5z m-465 -171
l5 -60 285 0 285 0 5 60 5 60 114 3 c89 2 119 -1 137 -13 l24 -15 0 -445 0
-445 -27 0 c-37 0 -50 -10 -54 -38 -5 -32 -112 -77 -130 -56 -6 8 -16 14 -21
14 -15 0 -75 -49 -93 -76 -15 -24 -15 -27 0 -45 17 -17 16 -21 -4 -64 -11 -24
-21 -49 -21 -54 0 -5 -14 -11 -30 -15 l-31 -6 3 -72 c3 -71 4 -73 31 -76 15
-2 27 -6 27 -10 0 -4 3 -17 6 -30 l6 -22 -389 0 c-289 0 -392 3 -401 12 -9 9
-12 183 -12 719 0 636 2 709 16 724 13 13 37 15 138 13 l121 -3 5 -60z m882
-937 c2 -17 17 -27 58 -43 30 -11 69 -28 86 -37 27 -15 34 -15 51 -3 18 13 23
13 33 1 8 -11 8 -19 -2 -35 -11 -18 -9 -27 10 -63 12 -24 28 -61 35 -83 9 -30
18 -41 35 -43 31 -5 27 -46 -5 -50 -15 -2 -24 -13 -29 -35 -4 -18 -18 -56 -33
-85 -21 -43 -23 -56 -14 -71 17 -27 -7 -47 -35 -30 -16 10 -26 8 -58 -11 -21
-13 -58 -29 -84 -36 -38 -9 -46 -15 -48 -38 -4 -31 -42 -38 -42 -8 0 22 -19
42 -40 42 -9 0 -45 14 -79 31 -58 29 -63 30 -80 15 -16 -14 -20 -15 -30 -2
-10 11 -9 19 1 35 10 17 9 26 -11 62 -13 23 -29 61 -36 83 -9 29 -18 42 -34
44 -30 5 -30 49 0 54 16 2 25 15 35 48 7 25 23 63 35 84 18 32 20 42 10 58 -9
15 -9 23 0 34 10 13 14 12 30 -2 16 -15 21 -14 61 9 24 14 62 30 85 37 32 8
44 17 49 35 8 32 41 34 46 3z"/>
<path d="M474 1697 c-2 -7 -3 -69 -2 -138 l3 -124 135 0 135 0 3 85 3 85 39
28 c60 42 47 102 -13 62 -22 -14 -25 -14 -30 0 -5 12 -29 15 -137 15 -98 0
-132 -3 -136 -13z m214 -59 c-2 -6 -16 -21 -31 -32 l-27 -20 -30 29 c-24 23
-32 26 -45 15 -21 -18 -19 -26 17 -71 34 -42 53 -48 84 -24 29 22 34 18 34
-20 l0 -35 -80 0 -80 0 0 85 0 85 81 0 c58 0 80 -3 77 -12z"/>
<path d="M924 1695 c-4 -8 -4 -22 0 -30 5 -13 31 -15 178 -13 l173 3 0 25 0
25 -173 3 c-147 2 -173 0 -178 -13z"/>
<path d="M824 1585 c-4 -8 -4 -22 0 -30 5 -13 42 -15 278 -13 l273 3 0 25 0
25 -273 3 c-236 2 -273 0 -278 -13z"/>
<path d="M832 1481 c-8 -5 -12 -17 -10 -27 3 -18 16 -19 161 -22 l157 -3 0 25
c0 13 -7 27 -16 30 -24 9 -277 7 -292 -3z"/>
<path d="M474 1237 c-2 -7 -3 -69 -2 -138 l3 -124 135 0 135 0 3 86 3 87 39
27 c41 28 52 61 25 71 -8 4 -26 -1 -39 -10 -21 -13 -25 -13 -30 -1 -8 21 -264
22 -272 2z m216 -56 c0 -5 -14 -20 -32 -32 l-31 -23 -22 28 c-24 31 -58 32
-63 4 -4 -22 57 -98 79 -98 9 0 28 9 43 21 l26 20 0 -38 0 -38 -80 0 -80 0 0
83 0 82 80 0 c44 0 80 -4 80 -9z"/>
<path d="M924 1235 c-4 -8 -4 -22 0 -30 5 -13 31 -15 178 -13 l173 3 0 25 0
25 -173 3 c-147 2 -173 0 -178 -13z"/>
<path d="M827 1133 c-13 -12 -7 -41 9 -47 9 -3 132 -6 274 -6 237 0 260 2 268
18 21 41 13 42 -272 42 -150 0 -276 -3 -279 -7z"/>
<path d="M824 1015 c-4 -8 -4 -22 0 -30 5 -13 29 -15 158 -13 l153 3 0 25 0
25 -153 3 c-129 2 -153 0 -158 -13z"/>
<path d="M474 777 c-2 -7 -3 -69 -2 -138 l3 -124 135 0 135 0 3 86 3 87 39 27
c41 28 52 61 25 71 -8 4 -26 -1 -39 -10 -21 -13 -25 -13 -30 -1 -8 21 -264 22
-272 2z m216 -50 c0 -7 -14 -24 -31 -36 l-31 -23 -22 27 c-24 30 -59 31 -64 3
-3 -17 63 -98 80 -98 6 0 23 9 39 21 l29 20 0 -35 0 -36 -80 0 -80 0 0 85 0
85 80 0 c59 0 80 -3 80 -13z"/>
<path d="M924 775 c-14 -35 3 -45 79 -45 78 0 103 12 91 44 -9 23 -162 24
-170 1z"/>
<path d="M820 655 l0 -25 130 0 130 0 0 25 0 25 -130 0 -130 0 0 -25z"/>
<path d="M824 555 c-15 -37 2 -45 100 -45 97 0 114 8 100 45 -5 12 -26 15
-100 15 -75 0 -96 -3 -100 -15z"/>
<path d="M1432 754 c-46 -24 -89 -77 -102 -126 -43 -158 118 -297 265 -229 78
36 115 95 115 182 0 107 -73 181 -184 186 -42 3 -71 -1 -94 -13z m161 -63 c38
-22 71 -92 63 -135 -13 -67 -73 -116 -142 -116 -97 0 -165 112 -120 199 19 36
37 50 83 66 41 15 73 11 116 -14z"/>
</g>
</svg>
